<svg xmlns="http://www.w3.org/2000/svg" width="512" height="512" enable-background="new 0 0 512 512" viewBox="0 0 512 512" id="color-palette">
  <path fill="#FAA54F" d="M422.927,75.843c-81.599-92.783-198.979-30.182-190.595,44.148c8.392,74.338-9.314,89.613-16.021,96.32
	c-6.707,6.707-21.982,24.414-96.32,16.021c-74.33-8.384-136.931,108.997-44.148,190.596
	c92.781,81.598,229.713,82.159,332.832-14.253C505.087,305.557,504.524,168.625,422.927,75.843z"></path>
  <circle cx="354.355" cy="121.451" r="32.899" fill="#CB2027"></circle>
  <circle cx="390.718" cy="234.782" r="32.899" fill="#3953A4"></circle>
  <circle cx="121.451" cy="354.356" r="32.899" fill="#0D8140"></circle>
  <circle cx="234.782" cy="390.719" r="32.899" fill="#E45E25"></circle>
  <path fill="#F6EC13" d="M377.714,331.186c-12.844-12.844-33.678-12.853-46.529,0c-12.853,12.852-12.845,33.686,0,46.529
	c12.843,12.843,33.676,12.852,46.529,0C390.565,364.861,390.557,344.028,377.714,331.186z"></path>
</svg>
