<svg xmlns="http://www.w3.org/2000/svg" height="40" fill="none" viewBox="0 0 40 40"><rect width="40" height="40" fill="#25D366" rx="2"/><path fill="#fff" fill-rule="evenodd" d="M7.164 19.887c.003-7.074 5.785-12.828 12.889-12.828a12.84 12.84 0 0 1 9.116 3.761 12.72 12.72 0 0 1 3.772 9.077c-.003 7.074-5.785 12.828-12.888 12.828-2.105 0-4.17-.51-6.018-1.482l-6.453 1.684a.417.417 0 0 1-.508-.514l1.724-6.265a12.76 12.76 0 0 1-1.634-6.261m12.882 10.549h-.004c-1.88 0-3.726-.504-5.335-1.454l-.383-.226-3.967 1.035 1.059-3.85-.25-.394a10.37 10.37 0 0 1-1.602-5.552c.002-5.752 4.705-10.431 10.487-10.431 2.8 0 5.431 1.087 7.41 3.06a10.34 10.34 0 0 1 3.067 7.38c-.002 5.752-4.704 10.432-10.482 10.432m3.535-8.939c.287.106 1.827.87 2.14 1.028l.172.084c.219.107.366.178.43.284.078.132.078.764-.183 1.502-.262.738-1.514 1.41-2.116 1.501-.54.082-1.223.116-1.973-.125a18 18 0 0 1-1.786-.665c-2.938-1.278-4.923-4.146-5.298-4.69l-.055-.078-.003-.003c-.166-.223-1.277-1.717-1.277-3.263 0-1.454.71-2.217 1.036-2.568l.06-.066c.288-.316.628-.395.837-.395a12 12 0 0 1 .67.012c.183-.001.41-.002.635.54l.345.845c.27.662.569 1.395.621 1.5.079.159.13.343.026.554l-.044.09c-.078.161-.136.28-.27.436l-.159.194a5 5 0 0 1-.31.36c-.157.157-.32.328-.137.644.182.316.811 1.35 1.743 2.187a8.1 8.1 0 0 0 2.312 1.474q.13.056.207.093c.314.159.497.132.68-.079.182-.21.783-.922.992-1.238s.417-.263.705-.158" clip-rule="evenodd"/></svg>
